<svg xmlns="http://www.w3.org/2000/svg" version="1.1" xmlns:xlink="http://www.w3.org/1999/xlink" xmlns:svgjs="http://svgjs.dev/svgjs" width="100%" height="100%" viewBox="0 0 1000 600"><rect width="1000" height="600" x="0" y="0" fill="green"/><g><circle r="166.66666666666666" cx="390.79220072428393" cy="413.0144373815507" fill="grey" transform="matrix(0.5577230665328035,0,0,0.5577230665328035,0,69.65230434369681)"/><path d="M437.00388183591207 346.0367324705664Q437.42170914580163 352.86124519876284 437.42170914580163 358.0701589953863L437.42170914580163 358.0701589953863Q437.42170914580163 367.2902149669497 435.80611021422857 379.71361364766653L435.80611021422857 379.71361364766653Q429.3994247959217 378.71082810393153 426.58605424266517 378.71082810393153L426.58605424266517 378.71082810393153Q421.1821543680933 378.71082810393153 411.73925716458876 379.3236414917696L411.73925716458876 379.3236414917696L410.73647162085376 379.3236414917696Q410.5414855429053 381.1342265012911 410.5414855429053 389.96431031695755L410.5414855429053 389.96431031695755Q410.5414855429053 409.0172356479224 411.93424324253726 486.23172251551676L411.93424324253726 486.23172251551676Q407.3381428337519 487.01166682731065 399.3158584838719 487.01166682731065L399.3158584838719 487.01166682731065L393.49413129941047 487.01166682731065Q382.26850424037707 487.01166682731065 376.0568049000187 488.01445237104565L376.0568049000187 488.01445237104565Q375.4439915121806 487.01166682731065 375.0540193562837 483.6133380402087L375.0540193562837 483.6133380402087L372.04566272507867 484.0033101961057Q371.04287718134367 482.22058034057676 371.04287718134367 476.3988531561153L371.04287718134367 476.3988531561153L371.23786325929217 445.7024734562275Q371.23786325929217 417.0395199978023 369.42727824977067 379.1286554138211L369.42727824977067 379.1286554138211Q367.8116793181976 378.93366933587265 364.4133505310957 378.93366933587265L364.4133505310957 378.93366933587265Q363.2155789094122 378.93366933587265 360.0958016622367 378.93366933587265Q357.0038795690538 378.93366933587265 354.49691570971635 378.71082810393153Q351.9899518503789 378.5158420259831 349.76153953096775 377.70804256019653L349.76153953096775 377.70804256019653Q349.56655345301925 377.3180704042996 349.4829879910414 376.5102709385131Q349.3715673750708 375.70247147272653 348.5637679092843 375.11751323888114Q347.7559684434978 374.5046998510431 345.7503973560278 373.6969003852566L345.7503973560278 373.6969003852566Q345.16543912218236 372.30414268562464 344.6640463503149 366.4824155011632Q344.1626535784474 360.6606883167017 344.1626535784474 353.86403074249785L344.1626535784474 353.86403074249785Q344.1626535784474 343.02837583936144 344.35763965639586 338.4044202765834L344.35763965639586 338.4044202765834Q357.0038795690538 338.4044202765834 363.4105649873607 338.20943419863494L363.4105649873607 338.20943419863494L382.658476396274 338.0144481206865Q411.73925716458876 338.0144481206865 431.2100098054432 340.21500528610494L431.2100098054432 340.21500528610494L432.99273966097206 342.0255902956264L432.99273966097206 344.0311613830964L435.2211519803832 344.22614746104483L437.00388183591207 346.0367324705664ZM382.658476396274 340.21500528610494L346.36321074386586 340.4099913640534L346.5581968218143 340.82781867394294Q346.16822466591736 343.41834799525833 346.16822466591736 348.4322757139333L346.16822466591736 348.4322757139333Q346.16822466591736 370.29857159815464 347.3659962876008 372.30414268562464L347.3659962876008 372.30414268562464Q348.3687818313358 372.6941148415216 353.57769562795926 372.6941148415216L353.57769562795926 372.6941148415216Q360.5971944341042 372.6941148415216 364.60833660904416 373.0005215354406Q368.6194787839841 373.30692822935964 371.4328493372406 374.6996859289915L371.4328493372406 374.6996859289915L371.6278354151891 374.9225271609327Q373.24343434676217 411.4127788912893 373.24343434676217 447.1230863098521L373.24343434676217 447.1230863098521Q373.24343434676217 462.5548416217739 372.82560703687255 473.78046868080725L372.82560703687255 473.78046868080725L372.82560703687255 479.79718194321725L373.0484482688137 481.80275303068726Q376.64176313386406 481.2177947968418 380.8478913867525 481.2177947968418L380.8478913867525 481.2177947968418L389.288003046522 481.2177947968418Q401.1264434933934 481.2177947968418 405.9175299801273 480.4099953310553L405.9175299801273 480.4099953310553L405.9175299801273 479.9921680211657Q404.52477228049537 403.00052238551245 404.52477228049537 385.95316814201755L404.52477228049537 385.95316814201755L404.52477228049537 378.71082810393153Q404.52477228049537 374.6996859289915 404.9147444363923 373.9197416171977L404.9147444363923 373.9197416171977L405.13758566833343 373.30692822935964L405.7225439021788 373.30692822935964Q416.16822664941833 372.6941148415216 422.1849399118283 372.6941148415216L422.1849399118283 372.6941148415216Q426.9760263985621 372.6941148415216 430.20722426170823 373.30692822935964L430.20722426170823 373.30692822935964Q431.4049958833917 364.4768444136932 431.4049958833917 354.0590168204463L431.4049958833917 354.0590168204463Q431.4049958833917 349.8528885675579 430.9871685735021 342.2205763735749L430.9871685735021 342.2205763735749Q411.1542989307434 340.21500528610494 382.658476396274 340.21500528610494L382.658476396274 340.21500528610494Z " fill="black" transform="matrix(0.5577230665328035,0,0,0.5577230665328035,0,69.65230434369681)"/><path d="M729.3572822861757 349.89221258502613Q729.7558650974406 356.4023985023534 729.7558650974406 361.3713975494562L729.7558650974406 361.3713975494562Q729.7558650974406 370.1667915847024 728.2146782272163 382.01798717297976L728.2146782272163 382.01798717297976Q722.1030751211539 381.0613884259439 719.41928419197 381.0613884259439L719.41928419197 381.0613884259439Q714.2642798329435 381.0613884259439 705.2563082983562 381.64597654913246L705.2563082983562 381.64597654913246L704.2997095513202 381.64597654913246Q704.1137042393967 383.3731687312805 704.1137042393967 391.7965521426794L704.1137042393967 391.7965521426794Q704.1137042393967 409.97192833636035 705.4423136102797 483.63003185811993L705.4423136102797 483.63003185811993Q701.0579026863655 484.3740531058144 693.4051127100787 484.3740531058144L693.4051127100787 484.3740531058144L687.8515255397873 484.3740531058144Q677.1429340104695 484.3740531058144 671.2173362163309 485.3306518528503L671.2173362163309 485.3306518528503Q670.6327480931424 484.3740531058144 670.260737469295 481.1322462408596L670.260737469295 481.1322462408596L667.3909412281874 481.5042568647069Q666.4343424811517 479.8036368699765 666.4343424811517 474.2500496996851L666.4343424811517 474.2500496996851L666.6203477930752 444.96749916542143Q666.6203477930752 417.6247183126471 664.8931556109272 381.45997123720883L664.8931556109272 381.45997123720883Q663.3519687407028 381.2739659252852 660.1101618757481 381.2739659252852L660.1101618757481 381.2739659252852Q658.9675578167886 381.2739659252852 655.9914728260104 381.2739659252852Q653.04196002265 381.2739659252852 650.6504631550603 381.0613884259439Q648.2589662874708 380.8753831140203 646.1331912940578 380.10478967890805L646.1331912940578 380.10478967890805Q645.9471859821341 379.7327790550608 645.8674694198811 378.96218561994857Q645.7611806702105 378.1915921848364 644.9905872350984 377.63357624906547Q644.2199937999861 377.0489881258769 642.3067963059144 376.2783946907647L642.3067963059144 376.2783946907647Q641.7487803701434 374.9497853198816 641.2704809966256 369.3961981495902Q640.7921816231077 363.8426109792988 640.7921816231077 357.35899724938923L640.7921816231077 357.35899724938923Q640.7921816231077 347.0224163439187 640.9781869350313 342.61143323258676L640.9781869350313 342.61143323258676Q653.04196002265 342.61143323258676 659.1535631287122 342.4254279206631L659.1535631287122 342.4254279206631L677.5149446343167 342.23942260873946Q705.2563082983562 342.23942260873946 723.830267303302 344.33862541473474L723.830267303302 344.33862541473474L725.5308872980323 346.0658175968828L725.5308872980323 347.9790150909545L727.6566622914453 348.16502040287816L729.3572822861757 349.89221258502613ZM677.5149446343167 344.33862541473474L642.8913844291029 344.5246307266584L643.0773897410266 344.92321353792335Q642.7053791171794 347.3944269677659 642.7053791171794 352.1774207029451L642.7053791171794 352.1774207029451Q642.7053791171794 373.03658782580993 643.8479831761389 374.9497853198816L643.8479831761389 374.9497853198816Q644.8045819231746 375.3217959437289 649.7735809702775 375.3217959437289L649.7735809702775 375.3217959437289Q656.4697721995284 375.3217959437289 660.2961671876717 375.61409000532313Q664.122562175815 375.90638406691744 666.806353104999 377.23499343780054L666.806353104999 377.23499343780054L666.9923584169226 377.44757093714185Q668.5335452871469 412.2571364542793 668.5335452871469 446.3226807237222L668.5335452871469 446.3226807237222Q668.5335452871469 461.043672553107 668.134962475882 471.7522640824249L668.134962475882 471.7522640824249L668.134962475882 477.49185656463993L668.3475399752234 479.40505405871164Q671.7753521521018 478.8470381229407 675.7877524521688 478.8470381229407L675.7877524521688 478.8470381229407L683.8391252397204 478.8470381229407Q695.1323048922269 478.8470381229407 699.7027211280647 478.07644468782854L699.7027211280647 478.07644468782854L699.7027211280647 477.67786187656355Q698.3741117571816 404.23233585414533 698.3741117571816 387.970157154536L698.3741117571816 387.970157154536L698.3741117571816 381.0613884259439Q698.3741117571816 377.23499343780054 698.7461223810288 376.490972190106L698.7461223810288 376.490972190106L698.9586998803701 375.90638406691744L699.5167158161411 375.90638406691744Q709.4812860977644 375.3217959437289 715.2208785799795 375.3217959437289L715.2208785799795 375.3217959437289Q719.7912948158173 375.3217959437289 722.8736685562661 375.90638406691744L722.8736685562661 375.90638406691744Q724.0162726152256 367.48300065551854 724.0162726152256 357.54500256131286L724.0162726152256 357.54500256131286Q724.0162726152256 353.53260226124587 723.6176898039606 346.25182290880645L723.6176898039606 346.25182290880645Q704.6982923625852 344.33862541473474 677.5149446343167 344.33862541473474L677.5149446343167 344.33862541473474ZM803.5999739311238 387.5715743432711Q803.9719845549711 390.6273758963023 803.9719845549711 392.3545680784503L803.9719845549711 392.3545680784503L803.9719845549711 394.267765572522Q803.7859792430476 399.4493421189661 803.7859792430476 409.2013349012481L803.7859792430476 409.2013349012481L803.9719845549711 430.61851795988383Q804.1845620543123 437.8992973123233 804.1845620543123 452.24827851786085L804.1845620543123 452.24827851786085Q804.1845620543123 463.5414581703673 803.5999739311238 475.3926537586446L803.5999739311238 475.3926537586446L803.5999739311238 476.7212631295277Q803.5999739311238 480.76023561701237 803.0153858079353 482.6734331110841Q802.4573698721643 484.58663060515573 799.5875736310569 485.14464654092666L799.5875736310569 485.14464654092666L796.903782701873 485.14464654092666Q794.219991772689 485.14464654092666 790.0215861606986 484.77263591707936L790.0215861606986 484.77263591707936L784.4679989904072 484.58663060515573Q783.139389619524 484.58663060515573 780.45559869034 484.95864122900304L780.45559869034 484.95864122900304L776.2306208909318 485.14464654092666Q773.1748193379007 484.3740531058144 772.2182205908649 481.3182515527833L772.2182205908649 481.3182515527833Q769.7470071610222 480.36165280574744 769.1624190378337 479.21904874678796L769.1624190378337 479.21904874678796Q759.2244209436279 485.3306518528503 749.4458559739284 485.3306518528503L749.4458559739284 485.3306518528503Q739.321852567799 485.3306518528503 731.5627738418417 476.5352578176041Q723.830267303302 467.7398637823579 719.7115782535643 454.4537700735268Q715.5928892038268 441.14110417727807 715.5928892038268 428.3333098419649L715.5928892038268 428.3333098419649Q715.5928892038268 413.7983233245037 720.5618882509294 403.3554536693625Q725.5308872980323 392.93915620163887 734.2465647710255 387.5715743432711Q742.9622422440187 382.230564672321 753.8568390852603 382.230564672321L753.8568390852603 382.230564672321Q759.2244209436279 382.230564672321 762.1739337469884 382.97458592001556Q765.1500187377666 383.7451793551278 767.6212321676093 386.8009809081589L767.6212321676093 386.8009809081589Q767.8338096669505 385.84438216112306 768.0198149788743 383.7451793551278Q768.2058202907978 381.64597654913246 768.97641372591 381.0613884259439Q769.7470071610222 380.503372490173 771.4476271557527 380.503372490173L771.4476271557527 380.503372490173Q773.1748193379007 380.503372490173 774.6097174584544 380.7956665517673Q776.0446155790081 381.0613884259439 777.3997971373088 381.0613884259439L777.3997971373088 381.0613884259439L779.1004171320393 381.0613884259439Q784.0959883665597 381.0613884259439 798.0463867608324 382.01798717297976L798.0463867608324 382.01798717297976L799.7735789429804 383.7451793551278L799.9595842549041 385.84438216112306L801.8727817489759 385.84438216112306L803.5999739311238 387.5715743432711ZM779.1004171320393 382.97458592001556L777.0012143260441 382.97458592001556L771.8462099670174 382.78858060809193Q769.933012472946 382.78858060809193 769.534429661681 385.1800774756815Q769.1624190378337 387.5715743432711 769.1624190378337 391.98255745460307L769.1624190378337 391.98255745460307L769.1624190378337 392.93915620163887Q767.4352268556855 388.7141784022306 764.7514359265018 386.8009809081589Q762.0942171847356 384.88778341408727 758.8258381323632 384.51577279023996Q755.5840312674082 384.1437621663927 749.6584334732696 384.1437621663927L749.6584334732696 384.1437621663927Q740.650461938682 384.32976747831634 733.2899660239897 390.14907652278436Q725.9294701092973 395.99495775467005 721.7044923098889 405.9329558488757Q717.5060866978984 415.897526130499 717.5060866978984 428.3333098419649L717.5060866978984 428.3333098419649Q717.5060866978984 439.62648949447134 720.5618882509294 451.4776850827487Q723.6176898039606 463.32888067102596 730.048159159035 471.4599700208306Q736.4520563266916 479.59105937063526 745.6194609857849 479.59105937063526L745.6194609857849 479.59105937063526Q752.1296469031121 479.59105937063526 759.1181321939574 476.4555412553511Q766.1066174848025 473.2934509526493 770.8896112199817 468.5104572174701L770.8896112199817 468.5104572174701Q770.8896112199817 469.6530612764296 770.4910284087167 471.6725475201719Q770.1190177848695 473.66546157649657 770.1190177848695 475.206648446721L770.1190177848695 475.206648446721Q770.1190177848695 478.4484553116758 772.4042259027884 479.40505405871164L772.4042259027884 479.40505405871164Q773.9454127730129 479.40505405871164 776.6292037021966 479.03304343486434L776.6292037021966 479.03304343486434L780.6416040022638 478.8470381229407L786.9657846076674 479.03304343486434Q791.164190219658 479.40505405871164 793.0773877137295 479.40505405871164L793.0773877137295 479.40505405871164L795.3625958316485 479.40505405871164Q796.903782701873 479.03304343486434 797.3820820753909 477.7841506262342Q797.8603814489089 476.5352578176041 797.8603814489089 474.2500496996851L797.8603814489089 474.2500496996851L797.8603814489089 471.5662587705013Q798.6309748840209 460.2730791179948 798.6309748840209 446.50868603564584L798.6309748840209 446.50868603564584L798.4449695720974 425.46351360085737Q798.0463867608324 411.30053770724345 798.0463867608324 404.019758354804L798.0463867608324 404.019758354804Q798.0463867608324 395.0383590076342 798.2323920727562 390.44137058437866L798.2323920727562 390.44137058437866L798.2323920727562 388.52817309030695Q798.2323920727562 387.0135584075002 797.8603814489089 383.9311846670514L797.8603814489089 383.9311846670514Q792.492799590541 383.5591740432041 779.1004171320393 382.97458592001556L779.1004171320393 382.97458592001556ZM759.9684421913227 409.75935083701904Q764.7514359265018 409.75935083701904 766.770922170244 410.6362330218019Q768.7904084139865 411.4865430191671 769.3484243497572 414.27662269802164Q769.933012472946 417.04013018945847 769.933012472946 423.5503161067857L769.933012472946 423.5503161067857L769.933012472946 434.07290232417995Q769.933012472946 440.95509886535444 769.2687077875042 444.7814938534978Q768.577830914645 448.60788884164117 766.0003287351318 450.70709164763645Q763.4228265556186 452.8062944536318 758.0552446972509 452.8062944536318L758.0552446972509 452.8062944536318Q750.2164494090406 452.8062944536318 745.6194609857849 446.88069665949314Q741.049044749947 440.95509886535444 741.049044749947 432.15970483010824L741.049044749947 432.15970483010824Q741.049044749947 425.83552422470467 742.1916488089065 422.0091292365613L742.1916488089065 422.0091292365613Q743.334252867866 416.85412487753484 747.9312412911216 413.3200239509858Q752.5282297143771 409.75935083701904 759.9684421913227 409.75935083701904L759.9684421913227 409.75935083701904ZM747.9312412911216 426.4201123478932Q746.7886372321622 430.2465073360366 746.7886372321622 435.9860998182516L746.7886372321622 435.9860998182516Q746.7886372321622 450.8930969595601 758.0552446972509 450.8930969595601L758.0552446972509 450.8930969595601Q762.8382384324301 450.8930969595601 764.9640134258431 448.7938941535648Q767.0632162318383 446.69469134756946 767.5415156053563 443.0543016713497Q768.0198149788743 439.41391199513004 768.0198149788743 431.9736995181846L768.0198149788743 431.9736995181846L768.0198149788743 426.97812828366415L768.2058202907978 421.23853580144913Q768.2058202907978 418.18273424841794 767.3555102934325 416.85412487753484Q766.4786281086498 415.49894331923406 763.7948371794658 415.49894331923406L763.7948371794658 415.49894331923406Q757.098645950215 415.49894331923406 753.086245650148 418.5813170596829Q749.0738453500811 421.637118612714 747.9312412911216 426.2341070359696L747.9312412911216 426.2341070359696L747.9312412911216 426.4201123478932ZM892.5636574054569 418.76732237160655Q885.867466176206 419.909926430566 877.8426655760719 419.909926430566L877.8426655760719 419.909926430566Q871.146474346821 419.909926430566 862.5370856234985 418.36873956034157L862.5370856234985 418.36873956034157L862.7230909354222 416.85412487753484Q862.7230909354222 415.71152081857537 861.7664921883865 415.23322144505744Q860.8098934413505 414.7549220715395 859.8532946943147 414.6486333218689Q858.8966959472788 414.54234457219826 858.7106906353553 414.54234457219826L858.7106906353553 414.54234457219826L858.8966959472788 413.0277298893915Q858.8966959472788 409.97192833636035 856.9834984532071 408.72303552773025Q855.0703009591354 407.4741427191001 852.0144994061044 406.88955459591153L852.0144994061044 406.88955459591153Q848.5601150418082 407.8461533429474 846.6469175477365 409.75935083701904Q844.7337200536648 411.6725483310907 844.7337200536648 413.98432863642734L844.7337200536648 413.98432863642734Q844.7337200536648 417.6247183126471 848.5601150418082 419.1393329954538L848.5601150418082 419.1393329954538L848.188104417961 418.9533276835302Q869.6052874765968 422.40771204782624 881.2704777529503 430.06050202411296Q892.9356680293041 437.71329200039963 892.9356680293041 454.3474813238562L892.9356680293041 454.3474813238562Q892.9356680293041 471.93826939434854 881.4564830648741 479.98964218190014Q869.977298100444 488.01444278203417 851.2439059709922 488.01444278203417L851.2439059709922 488.01444278203417Q837.8515235124904 488.01444278203417 827.3289372950961 482.9391549852607Q816.8063510777018 477.89043937590486 810.9604698458162 469.1747619029117Q805.1411608013483 460.4590844299185 805.1411608013483 450.1490757118656L805.1411608013483 450.1490757118656L805.1411608013483 447.4652847826817Q811.0667585954869 446.69469134756946 818.134960448585 446.69469134756946L818.134960448585 446.69469134756946L828.0995307302084 446.88069665949314Q831.1553322832395 447.06670197141676 837.0809300773782 447.06670197141676L837.0809300773782 447.06670197141676Q837.0809300773782 448.60788884164117 838.0375288244139 450.8930969595601L838.0375288244139 450.8930969595601L840.9073250655216 450.8930969595601Q840.9073250655216 457.58928818881094 849.5167137888442 457.58928818881094L849.5167137888442 457.58928818881094Q857.3555090770545 457.58928818881094 857.3555090770545 449.93649821252427L857.3555090770545 449.93649821252427Q857.3555090770545 447.06670197141676 854.4059962736939 445.8443813502043Q851.4299112829157 444.5954885415742 844.9197253655885 443.2403069832734L844.9197253655885 443.2403069832734Q836.7089194535309 441.7256923004666 832.297936342199 439.81249480639497L832.297936342199 439.81249480639497L832.4839416541225 439.81249480639497Q820.818751377769 435.800094506328 813.9365548365944 426.7124064094875Q807.05435829542 417.6247183126471 807.05435829542 407.8461533429474L807.05435829542 407.8461533429474Q807.05435829542 398.86475399577756 812.8736673398879 390.8399533956436Q818.7195485717735 382.78858060809193 828.2855360421321 379.9187843669844L828.2855360421321 379.9187843669844Q834.7957219594592 378.0055868729127 848.188104417961 378.0055868729127L848.188104417961 378.0055868729127Q860.9958987532742 378.0055868729127 869.2332768527493 379.9187843669844Q877.4440827648069 381.8319818610561 882.6256593112511 388.3421677783833L882.6256593112511 388.3421677783833Q894.1048442756813 397.7221499368181 894.1048442756813 416.85412487753484L894.1048442756813 416.85412487753484L892.5636574054569 418.76732237160655ZM871.704490282592 382.230564672321Q861.3679093771215 379.9187843669844 848.188104417961 379.9187843669844L848.188104417961 379.9187843669844Q808.9675557894917 379.9187843669844 808.9675557894917 407.8461533429474L808.9675557894917 407.8461533429474Q808.9675557894917 416.4555420662699 814.1225601485181 423.6300326690387Q819.2775645075445 430.80452327180745 829.2421347891678 434.2589076361036L829.2421347891678 434.2589076361036Q833.8391232124235 436.3581104420989 843.777121306629 438.27130793617056L843.777121306629 438.27130793617056Q852.0144994061044 440.18450543024227 855.6283168949063 442.0977029243139Q859.268706571126 444.0109004183856 859.268706571126 448.60788884164117L859.268706571126 448.60788884164117Q859.268706571126 454.3474813238562 856.7974931412836 456.9249835033694Q854.2997075240233 459.50248568288265 849.5167137888442 459.50248568288265L849.5167137888442 459.50248568288265Q844.1491319304763 459.50248568288265 839.9507263184856 456.63268944177514Q835.752320706495 453.76289320066763 835.3537378952302 448.9798994654884L835.3537378952302 448.9798994654884L813.3519667134059 448.7938941535648Q808.9675557894917 448.7938941535648 807.05435829542 449.1924769648297L807.05435829542 449.1924769648297L807.05435829542 450.1490757118656Q807.05435829542 464.8700675412504 818.134960448585 473.5857450142436Q829.2421347891678 482.2748502998191 847.4175109828487 482.2748502998191L847.4175109828487 482.2748502998191Q864.8222937414174 482.2748502998191 875.9294680820002 475.10035969705035Q887.0100702351655 467.92586909428155 887.0100702351655 450.5210863357128L887.0100702351655 450.5210863357128Q887.0100702351655 440.58308824150714 882.4130818119098 434.6309182599509Q877.8426655760719 428.7053204658122 869.7115762262673 425.83552422470467Q861.5804868764627 422.96572798359716 847.9755269186197 420.86652517760183L847.9755269186197 420.86652517760183Q843.5911159947053 419.3253383073774 841.2793356893688 416.4555420662699Q838.9941275714499 413.5857458251624 838.9941275714499 410.3439389602076L838.9941275714499 410.3439389602076Q838.9941275714499 407.10213209525284 841.5716297509631 404.12604710447465Q844.1491319304763 401.1499621136965 848.746120353732 401.1499621136965L848.746120353732 401.1499621136965Q853.1571034650639 401.1499621136965 857.1695037651308 404.41834116606896Q861.1819040651977 407.66014803102377 861.1819040651977 411.4865430191671L861.1819040651977 411.4865430191671Q861.1819040651977 412.62914707812655 860.9958987532742 413.0277298893915L860.9958987532742 413.0277298893915Q866.9214965474129 414.17033394835096 874.0162705879287 414.17033394835096L874.0162705879287 414.17033394835096Q881.8550658761391 414.17033394835096 888.3652517934662 413.0277298893915L888.3652517934662 413.0277298893915Q888.3652517934662 402.1065608607324 884.3262793059815 393.9754715109277Q880.3138790059146 385.84438216112306 871.704490282592 382.230564672321L871.704490282592 382.230564672321ZM948.630972856724 426.97812828366415Q953.201389092562 434.2589076361036 955.3271640859749 437.8992973123233L955.3271640859749 437.8992973123233Q964.3085634331447 452.06227320593723 970.6327440385484 462.6645759855844Q976.9303524565343 473.2934509526493 982.6699449387494 484.95864122900304L982.6699449387494 484.95864122900304Q978.843549950606 484.95864122900304 970.0481559153596 485.3306518528503L970.0481559153596 485.3306518528503Q960.4821684450013 485.7292346641152 955.3271640859749 485.7292346641152L955.3271640859749 485.7292346641152Q951.5007690978315 485.7292346641152 949.2952775421655 484.85235247933235Q947.0897859864996 484.0020424819672 945.7611766156166 481.3182515527833L945.7611766156166 481.3182515527833L944.0339844334684 480.946240928936Q938.2943919512535 472.15084689368985 933.3253929041506 461.043672553107L933.3253929041506 461.043672553107Q931.4121954100789 456.84526694111645 930.2430191637019 454.71949194770343L930.2430191637019 454.71949194770343L930.4555966630431 466.0126716002099Q930.4555966630431 477.49185656463993 928.9144097928187 485.14464654092666L928.9144097928187 485.14464654092666Q926.0446135517112 484.95864122900304 920.3050210694961 484.95864122900304L920.3050210694961 484.95864122900304L917.2492195164649 484.95864122900304Q911.111044222985 485.3306518528503 907.6832320461066 485.3306518528503L907.6832320461066 485.3306518528503Q906.9126386109943 485.3306518528503 904.7071470553284 485.4369406025209Q902.5016554996624 485.54322935219153 901.27933487845 484.58663060515573Q900.03044206982 483.63003185811993 900.03044206982 481.3182515527833L900.03044206982 481.3182515527833Q899.073843322784 481.3182515527833 896.3900523936001 480.946240928936L896.3900523936001 480.946240928936Q895.619458958488 460.85766724118344 895.619458958488 434.8434957592921L895.619458958488 434.8434957592921Q895.619458958488 419.3253383073774 896.0180417697528 387.5715743432711L896.0180417697528 387.5715743432711Q896.3900523936001 355.4457997553175 896.3900523936001 338.4130276205961L896.3900523936001 338.4130276205961Q902.3156501877389 338.4130276205961 905.5840292401114 338.2270223086725L905.5840292401114 338.2270223086725L916.1066154575054 338.01444480933117Q918.0198129515771 338.01444480933117 922.2182185635678 338.4130276205961L922.2182185635678 338.4130276205961L926.2306188636347 338.5990329325197L926.2306188636347 342.23942260873946L930.0570138517782 342.4254279206631L930.0570138517782 386.0569596604644Q930.0570138517782 389.88335464860774 929.8710085398544 391.7965521426794L929.8710085398544 391.7965521426794L929.6850032279309 397.7221499368181L933.1128154048093 391.98255745460307Q938.2943919512535 383.3731687312805 943.0773856864326 377.63357624906547L943.0773856864326 377.63357624906547Q947.0897859864996 378.96218561994857 953.5999719038269 378.96218561994857L953.5999719038269 378.96218561994857L961.8107778158845 378.77618030802495Q967.5503702980994 378.4041696841777 970.6327440385484 378.4041696841777L970.6327440385484 378.4041696841777Q974.831149650539 378.4041696841777 977.3289352677992 378.5901749961013L977.3289352677992 378.5901749961013Q976.7443471446105 379.5467737431372 976.080042459169 380.39708374050235Q975.4157377737275 381.2739659252852 974.831149650539 382.230564672321L974.831149650539 382.230564672321Q978.6575446386822 382.230564672321 981.1553302559424 382.4165699842447L981.1553302559424 382.4165699842447Q974.6451443386153 392.54057339037394 969.0915571683239 400.11364680440767Q963.5379699980325 407.66014803102377 954.9285812747099 418.76732237160655L954.9285812747099 418.76732237160655L948.630972856724 426.97812828366415ZM954.7425759627864 479.98964218190014Q959.1535590741181 479.98964218190014 967.1783596742522 479.59105937063526L967.1783596742522 479.59105937063526Q973.6885455915796 479.21904874678796 975.7877483975748 479.21904874678796L975.7877483975748 479.21904874678796Q970.8187493504719 469.28105065258234 965.4511674921042 460.2730791179948Q960.1101578211541 451.29167977082506 950.7301756627193 436.3581104420989L950.7301756627193 436.3581104420989L942.4927975632442 423.1517332955208L953.4139665919032 408.8027520899832Q968.3209637332117 389.11276121349556 974.0605562154268 380.31736717824936L974.0605562154268 380.31736717824936L971.3767652862429 380.31736717824936L963.1659593741853 380.503372490173Q956.6557734568579 380.8753831140203 953.4139665919032 380.8753831140203L953.4139665919032 380.8753831140203Q946.5051978633111 380.8753831140203 943.8479791215449 379.7327790550608L943.8479791215449 379.7327790550608Q939.436996010213 384.88778341408727 935.6106010220695 391.98255745460307L935.6106010220695 391.98255745460307Q929.6850032279309 402.3191383600736 924.317421369563 407.10213209525284L924.317421369563 407.10213209525284Q923.9454107457158 402.87715429584455 923.9454107457158 399.8213527428134L923.9454107457158 399.8213527428134Q923.9454107457158 394.267765572522 924.1314160576395 391.21196401949084L924.1314160576395 391.21196401949084L924.317421369563 382.230564672321L924.317421369563 340.3262251146678Q920.8896091926848 339.9276423034028 918.5778288873481 339.9276423034028L918.5778288873481 339.9276423034028L911.6956323461735 340.1402198027441L898.3032498876718 340.3262251146678Q898.3032498876718 356.1898210030121 897.9312392638245 387.5715743432711L897.9312392638245 387.5715743432711Q897.5326564525595 418.9533276835302 897.5326564525595 435.0295010712158L897.5326564525595 435.0295010712158Q897.5326564525595 459.13047505903535 898.3032498876718 479.21904874678796L898.3032498876718 479.21904874678796Q902.5016554996624 479.59105937063526 904.6274304930754 479.59105937063526L904.6274304930754 479.59105937063526Q907.6832320461066 479.59105937063526 913.0242417170567 479.21904874678796L913.0242417170567 479.21904874678796L920.1190157575726 479.03304343486434L923.546827934451 479.21904874678796Q924.716004180828 473.10744564072564 924.716004180828 462.37228192399016L924.716004180828 462.37228192399016L924.5034266814868 450.5210863357128Q924.317421369563 447.4652847826817 924.317421369563 442.28370823623754L924.317421369563 442.28370823623754Q927.7718057338592 446.69469134756946 930.5353132252961 451.5839738324193Q933.3253929041506 456.44668412985146 936.5671997691053 463.5414581703673L936.5671997691053 463.5414581703673Q942.1207869393967 474.8080656354561 944.9905831805044 479.21904874678796L944.9905831805044 479.21904874678796Q948.232390045459 479.98964218190014 954.7425759627864 479.98964218190014L954.7425759627864 479.98964218190014ZM1097.275789271126 349.89221258502613Q1097.6477998949736 356.4023985023534 1097.6477998949736 361.3713975494562L1097.6477998949736 361.3713975494562Q1097.6477998949736 370.1667915847024 1096.1331852121666 382.01798717297976L1096.1331852121666 382.01798717297976Q1089.9950099186867 381.0613884259439 1087.3377911769203 381.0613884259439L1087.3377911769203 381.0613884259439Q1082.1562146304764 381.0613884259439 1073.1748152833065 381.64597654913246L1073.1748152833065 381.64597654913246L1072.2182165362706 381.64597654913246Q1072.032211224347 383.3731687312805 1072.032211224347 391.7965521426794L1072.032211224347 391.7965521426794Q1072.032211224347 409.97192833636035 1073.36082059523 483.63003185811993L1073.36082059523 483.63003185811993Q1068.9498374838981 484.3740531058144 1061.2970475076118 484.3740531058144L1061.2970475076118 484.3740531058144L1055.7700325247379 484.3740531058144Q1045.0348688080026 484.3740531058144 1039.1092710138637 485.3306518528503L1039.1092710138637 485.3306518528503Q1038.5512550780927 484.3740531058144 1038.1526722668277 481.1322462408596L1038.1526722668277 481.1322462408596L1035.2828760257203 481.5042568647069Q1034.3262772786843 479.8036368699765 1034.3262772786843 474.2500496996851L1034.3262772786843 474.2500496996851L1034.5122825906083 444.96749916542143Q1034.5122825906083 417.6247183126471 1032.8116625958778 381.45997123720883L1032.8116625958778 381.45997123720883Q1031.2704757256533 381.2739659252852 1028.0286688606984 381.2739659252852L1028.0286688606984 381.2739659252852Q1026.8594926143214 381.2739659252852 1023.9099798109609 381.2739659252852Q1020.9338948201829 381.2739659252852 1018.5423979525932 381.0613884259439Q1016.1509010850037 380.8753831140203 1014.0516982790083 380.10478967890805L1014.0516982790083 380.10478967890805Q1013.8656929670848 379.7327790550608 1013.759404217414 378.96218561994857Q1013.679687655161 378.1915921848364 1012.9090942200488 377.63357624906547Q1012.1385007849366 377.0489881258769 1010.2253032908649 376.2783946907647L1010.2253032908649 376.2783946907647Q1009.6407151676764 374.9497853198816 1009.1624157941584 369.3961981495902Q1008.6841164206404 363.8426109792988 1008.6841164206404 357.35899724938923L1008.6841164206404 357.35899724938923Q1008.6841164206404 347.0224163439187 1008.8966939199819 342.61143323258676L1008.8966939199819 342.61143323258676Q1020.9338948201829 342.61143323258676 1027.072070113663 342.4254279206631L1027.072070113663 342.4254279206631L1045.4334516192675 342.23942260873946Q1073.1748152833065 342.23942260873946 1091.7222021008347 344.33862541473474L1091.7222021008347 344.33862541473474L1093.4493942829831 346.0658175968828L1093.4493942829831 347.9790150909545L1095.548597088978 348.16502040287816L1097.275789271126 349.89221258502613ZM1045.4334516192675 344.33862541473474L1010.8098914140536 344.5246307266584L1010.9958967259771 344.92321353792335Q1010.5973139147121 347.3944269677659 1010.5973139147121 352.1774207029451L1010.5973139147121 352.1774207029451Q1010.5973139147121 373.03658782580993 1011.7664901610893 374.9497853198816L1011.7664901610893 374.9497853198816Q1012.7230889081251 375.3217959437289 1017.692087955228 375.3217959437289L1017.692087955228 375.3217959437289Q1024.388279184479 375.3217959437289 1028.2146741726224 375.61409000532313Q1032.0410691607653 375.90638406691744 1034.7248600899493 377.23499343780054L1034.7248600899493 377.23499343780054L1034.9108654018733 377.44757093714185Q1036.4254800846797 412.2571364542793 1036.4254800846797 446.3226807237222L1036.4254800846797 446.3226807237222Q1036.4254800846797 461.043672553107 1036.0534694608327 471.7522640824249L1036.0534694608327 471.7522640824249L1036.0534694608327 477.49185656463993L1036.2394747727562 479.40505405871164Q1039.6938591370522 478.8470381229407 1043.7062594371191 478.8470381229407L1043.7062594371191 478.8470381229407L1051.7310600372534 478.8470381229407Q1063.0242396897597 478.8470381229407 1067.6212281130151 478.07644468782854L1067.6212281130151 478.07644468782854L1067.6212281130151 477.67786187656355Q1066.2926187421322 404.23233585414533 1066.2926187421322 387.970157154536L1066.2926187421322 387.970157154536L1066.2926187421322 381.0613884259439Q1066.2926187421322 377.23499343780054 1066.6646293659792 376.490972190106L1066.6646293659792 376.490972190106L1066.8506346779031 375.90638406691744L1067.4352228010916 375.90638406691744Q1077.3732208952974 375.3217959437289 1083.1128133775123 375.3217959437289L1083.1128133775123 375.3217959437289Q1087.7098018007678 375.3217959437289 1090.7656033537992 375.90638406691744L1090.7656033537992 375.90638406691744Q1091.9082074127587 367.48300065551854 1091.9082074127587 357.54500256131286L1091.9082074127587 357.54500256131286Q1091.9082074127587 353.53260226124587 1091.5361967889112 346.25182290880645L1091.5361967889112 346.25182290880645Q1072.590227160118 344.33862541473474 1045.4334516192675 344.33862541473474L1045.4334516192675 344.33862541473474ZM1120.0481538880626 385.4723715372758Q1122.519367317905 385.84438216112306 1123.103955441094 386.242964972388L1123.103955441094 386.242964972388Q1133.9985522823354 382.78858060809193 1143.9631225639587 382.78858060809193L1143.9631225639587 382.78858060809193Q1148.746116299138 382.78858060809193 1152.173928476016 383.26687998160986Q1155.6283128403124 383.7451793551278 1155.6283128403124 384.1437621663927L1155.6283128403124 384.1437621663927L1155.6283128403124 387.0135584075002Q1159.4547078284559 387.5715743432711 1159.4547078284559 387.970157154536L1159.4547078284559 387.970157154536L1159.2687025165324 404.23233585414533Q1159.0826972046084 407.4741427191001 1159.0826972046084 412.62914707812655L1159.0826972046084 412.62914707812655Q1159.0826972046084 415.71152081857537 1159.6407131403794 424.32090954189795L1159.6407131403794 424.32090954189795L1155.256302216465 422.7797226716735L1155.442307528389 422.96572798359716L1153.130527223052 422.19513454848493L1153.3431047223935 422.40771204782624Q1145.6903147461067 420.4945145537546 1143.0862403791757 420.09593174248965Q1140.5087381996627 419.72392111864235 1138.5955407055908 419.72392111864235Q1136.6823432115193 419.72392111864235 1135.9117497764069 419.72392111864235L1135.9117497764069 419.72392111864235Q1129.4281360464975 419.72392111864235 1126.2660457437955 422.3014232981556Q1123.103955441094 424.8789254776688 1123.103955441094 431.5751167069197L1123.103955441094 431.5751167069197Q1123.874548876206 455.11807475896836 1123.874548876206 481.7168343640482L1123.874548876206 481.7168343640482L1123.874548876206 484.0020424819672Q1117.7363735827262 485.7292346641152 1112.5813692236998 485.7292346641152L1112.5813692236998 485.7292346641152Q1109.5255676706684 485.7292346641152 1107.984380800444 485.54322935219153L1107.984380800444 485.54322935219153L1102.244788318229 485.3306518528503L1099.95958020031 485.3306518528503Q1097.0897839592026 485.3306518528503 1094.4059930300186 485.7292346641152L1094.4059930300186 485.7292346641152L1094.4059930300186 481.5042568647069L1090.5795980418752 481.90283967597185L1090.3935927299517 445.73809260053366Q1089.9950099186867 421.637118612714 1089.9950099186867 409.2013349012481L1089.9950099186867 409.2013349012481Q1089.9950099186867 399.0507593077012 1090.3935927299517 381.8319818610561L1090.3935927299517 381.8319818610561Q1094.9905811532071 382.4165699842447 1099.002981453274 382.4165699842447L1099.002981453274 382.4165699842447Q1100.517596136081 382.4165699842447 1104.078269250048 381.93827061072676Q1107.6123701765969 381.45997123720883 1113.7239732826592 381.45997123720883L1113.7239732826592 381.45997123720883Q1120.0481538880626 381.45997123720883 1120.0481538880626 383.7451793551278L1120.0481538880626 383.7451793551278L1120.0481538880626 385.4723715372758ZM1118.1349563939912 387.3855690313475L1118.1349563939912 383.7451793551278Q1118.1349563939912 383.3731687312805 1115.8231760886542 383.3731687312805L1115.8231760886542 383.3731687312805Q1109.5255676706684 383.3731687312805 1105.1145845593364 383.8514681047984Q1100.7301736354225 384.32976747831634 1099.002981453274 384.32976747831634L1099.002981453274 384.32976747831634L1096.6912011479376 384.32976747831634Q1094.2199877180951 384.32976747831634 1092.3067902240236 383.9311846670514L1092.3067902240236 383.9311846670514Q1091.9082074127587 389.88335464860774 1091.9082074127587 401.36253961303777L1091.9082074127587 401.36253961303777L1091.9082074127587 413.0277298893915Q1091.9082074127587 424.6929201657452 1092.3067902240236 446.88069665949314L1092.3067902240236 446.88069665949314L1092.4927955359472 479.8036368699765Q1094.778003653866 479.59105937063526 1098.8169761413506 479.59105937063526L1098.8169761413506 479.59105937063526L1109.1269848594034 479.8036368699765Q1113.7239732826592 479.8036368699765 1118.1349563939912 478.6344606235994L1118.1349563939912 478.6344606235994L1118.1349563939912 477.89043937590486Q1118.1349563939912 467.7398637823579 1117.7363735827262 451.6636903946723L1117.7363735827262 451.6636903946723Q1117.3643629588787 435.5875170069867 1117.3643629588787 426.60611765981685L1117.3643629588787 426.60611765981685Q1117.3643629588787 419.53791580671873 1121.0844691973516 416.7478361278642Q1124.831147623242 413.98432863642734 1132.0853547882639 413.98432863642734L1132.0853547882639 413.98432863642734Q1133.2545310346409 413.98432863642734 1135.4334504028893 413.87803988675665Q1137.6389419585553 413.7983233245037 1140.6150269493332 414.27662269802164Q1143.5645397526937 414.7549220715395 1147.9755228640256 415.897526130499L1147.9755228640256 415.897526130499Q1148.9321216110616 416.2695367543463 1149.995009107768 416.5618308159406Q1151.0313244170566 416.85412487753484 1151.9879231640925 417.2261355013821L1151.9879231640925 417.2261355013821L1153.7151153462405 417.8107236245707Q1153.529110034317 415.71152081857537 1153.529110034317 411.6725483310907L1153.529110034317 411.6725483310907L1153.529110034317 404.6043464779926L1153.7151153462405 384.1437621663927Q1153.7151153462405 383.7451793551278 1149.7027150461736 383.7451793551278L1149.7027150461736 383.7451793551278Q1142.4219356937342 383.7451793551278 1132.5636541617814 385.76466559887007Q1122.7319448172466 387.7575796551948 1118.3209617059147 390.25536527245504L1118.3209617059147 390.25536527245504Q1118.3209617059147 388.9267559015719 1118.2146729562442 388.3421677783833Q1118.1349563939912 387.7575796551948 1118.1349563939912 387.3855690313475L1118.1349563939912 387.3855690313475ZM1245.3625897497573 387.5715743432711Q1245.7346003736047 390.6273758963023 1245.7346003736047 392.3545680784503L1245.7346003736047 392.3545680784503L1245.7346003736047 394.267765572522Q1245.5485950616812 399.4493421189661 1245.5485950616812 409.2013349012481L1245.5485950616812 409.2013349012481L1245.7346003736047 430.61851795988383Q1245.9206056855282 437.8992973123233 1245.9206056855282 452.24827851786085L1245.9206056855282 452.24827851786085Q1245.9206056855282 463.5414581703673 1245.3625897497573 475.3926537586446L1245.3625897497573 475.3926537586446L1245.3625897497573 476.7212631295277Q1245.3625897497573 480.76023561701237 1244.7780016265688 482.6734331110841Q1244.2199856907982 484.58663060515573 1241.3501894496903 485.14464654092666L1241.3501894496903 485.14464654092666L1238.6663985205068 485.14464654092666Q1235.982607591323 485.14464654092666 1231.784201979332 484.77263591707936L1231.784201979332 484.77263591707936L1226.2306148090406 484.58663060515573Q1224.8754332507401 484.58663060515573 1222.2182145089737 484.95864122900304L1222.2182145089737 484.95864122900304L1217.9932367095653 485.14464654092666Q1214.9374351565343 484.3740531058144 1213.9808364094984 481.3182515527833L1213.9808364094984 481.3182515527833Q1211.4830507922384 480.36165280574744 1210.9250348564674 479.21904874678796L1210.9250348564674 479.21904874678796Q1200.960464574844 485.3306518528503 1191.2084717925618 485.3306518528503L1191.2084717925618 485.3306518528503Q1181.0844683864325 485.3306518528503 1173.3253896604751 476.5352578176041Q1165.5663109345178 467.7398637823579 1161.4741940721979 454.4537700735268Q1157.3555050224604 441.14110417727807 1157.3555050224604 428.3333098419649L1157.3555050224604 428.3333098419649Q1157.3555050224604 413.7983233245037 1162.3245040695633 403.3554536693625Q1167.2935031166662 392.93915620163887 1176.009180589659 387.5715743432711Q1184.698285875235 382.230564672321 1195.6194549038942 382.230564672321L1195.6194549038942 382.230564672321Q1200.960464574844 382.230564672321 1203.936549565622 382.97458592001556Q1206.9126345564005 383.7451793551278 1209.383847986243 386.8009809081589L1209.383847986243 386.8009809081589Q1209.5698532981664 385.84438216112306 1209.782430797508 383.7451793551278Q1209.9684361094314 381.64597654913246 1210.7390295445439 381.0613884259439Q1211.4830507922384 380.503372490173 1213.2102429743863 380.503372490173L1213.2102429743863 380.503372490173Q1214.9374351565343 380.503372490173 1216.3723332770883 380.7956665517673Q1217.8072313976418 381.0613884259439 1219.1358407685248 381.0613884259439L1219.1358407685248 381.0613884259439L1220.8630329506732 381.0613884259439Q1225.8320319977756 381.0613884259439 1239.8090025794663 382.01798717297976L1239.8090025794663 382.01798717297976L1241.5361947616143 383.7451793551278L1241.7222000735378 385.84438216112306L1243.6353975676093 385.84438216112306L1245.3625897497573 387.5715743432711ZM1220.8630329506732 382.97458592001556L1218.7638301446777 382.97458592001556L1213.6088257856513 382.78858060809193Q1211.6956282915794 382.78858060809193 1211.2970454803144 385.1800774756815Q1210.9250348564674 387.5715743432711 1210.9250348564674 391.98255745460307L1210.9250348564674 391.98255745460307L1210.9250348564674 392.93915620163887Q1209.1978426743194 388.7141784022306 1206.5140517451355 386.8009809081589Q1203.8302608159515 384.88778341408727 1200.5884539509966 384.51577279023996Q1197.3466470860421 384.1437621663927 1191.3944771044858 384.1437621663927L1191.3944771044858 384.1437621663927Q1182.413077757316 384.32976747831634 1175.0525818426236 390.14907652278436Q1167.6920859279307 395.99495775467005 1163.4671081285228 405.9329558488757Q1159.2687025165324 415.897526130499 1159.2687025165324 428.3333098419649L1159.2687025165324 428.3333098419649Q1159.2687025165324 439.62648949447134 1162.3245040695633 451.4776850827487Q1165.3803056225943 463.32888067102596 1171.7842027902507 471.4599700208306Q1178.214672145325 479.59105937063526 1187.3820768044188 479.59105937063526L1187.3820768044188 479.59105937063526Q1193.8922627217457 479.59105937063526 1200.880748012591 476.4555412553511Q1207.869233303436 473.2934509526493 1212.6522270386154 468.5104572174701L1212.6522270386154 468.5104572174701Q1212.6522270386154 469.6530612764296 1212.2536442273504 471.6725475201719Q1211.8816336035034 473.66546157649657 1211.8816336035034 475.206648446721L1211.8816336035034 475.206648446721Q1211.8816336035034 478.4484553116758 1214.1668417214223 479.40505405871164L1214.1668417214223 479.40505405871164Q1215.7080285916463 479.40505405871164 1218.3918195208303 479.03304343486434L1218.3918195208303 479.03304343486434L1222.4042198208972 478.8470381229407L1228.7018282388835 479.03304343486434Q1232.9268060382915 479.40505405871164 1234.8400035323634 479.40505405871164L1234.8400035323634 479.40505405871164L1237.1252116502824 479.40505405871164Q1238.6663985205068 479.03304343486434 1239.1446978940244 477.7841506262342Q1239.6229972675424 476.5352578176041 1239.6229972675424 474.2500496996851L1239.6229972675424 474.2500496996851L1239.6229972675424 471.5662587705013Q1240.3935907026548 460.2730791179948 1240.3935907026548 446.50868603564584L1240.3935907026548 446.50868603564584L1240.1810132033133 425.46351360085737Q1239.8090025794663 411.30053770724345 1239.8090025794663 404.019758354804L1239.8090025794663 404.019758354804Q1239.8090025794663 395.0383590076342 1239.9950078913898 390.44137058437866L1239.9950078913898 390.44137058437866L1239.9950078913898 388.52817309030695Q1239.9950078913898 387.0135584075002 1239.6229972675424 383.9311846670514L1239.6229972675424 383.9311846670514Q1234.255415409175 383.5591740432041 1220.8630329506732 382.97458592001556L1220.8630329506732 382.97458592001556ZM1201.731058009956 409.75935083701904Q1206.5140517451355 409.75935083701904 1208.533537988878 410.6362330218019Q1210.5264520452024 411.4865430191671 1211.111040168391 414.27662269802164Q1211.6956282915794 417.04013018945847 1211.6956282915794 423.5503161067857L1211.6956282915794 423.5503161067857L1211.6956282915794 434.07290232417995Q1211.6956282915794 440.95509886535444 1211.0047514187204 444.7814938534978Q1210.340446733279 448.60788884164117 1207.7629445537655 450.70709164763645Q1205.1854423742525 452.8062944536318 1199.8178605158846 452.8062944536318L1199.8178605158846 452.8062944536318Q1191.9790652276743 452.8062944536318 1187.3820768044188 446.88069665949314Q1182.785088381163 440.95509886535444 1182.785088381163 432.15970483010824L1182.785088381163 432.15970483010824Q1182.785088381163 425.83552422470467 1183.9542646275404 422.0091292365613L1183.9542646275404 422.0091292365613Q1185.0968686864999 416.85412487753484 1189.6938571097553 413.3200239509858Q1194.2642733455932 409.75935083701904 1201.731058009956 409.75935083701904L1201.731058009956 409.75935083701904ZM1189.6938571097553 426.4201123478932Q1188.5246808633783 430.2465073360366 1188.5246808633783 435.9860998182516L1188.5246808633783 435.9860998182516Q1188.5246808633783 450.8930969595601 1199.8178605158846 450.8930969595601L1199.8178605158846 450.8930969595601Q1204.600854251064 450.8930969595601 1206.700057057059 448.7938941535648Q1208.825832050472 446.69469134756946 1209.30413142399 443.0543016713497Q1209.782430797508 439.41391199513004 1209.782430797508 431.9736995181846L1209.782430797508 431.9736995181846L1209.782430797508 426.97812828366415L1209.9684361094314 421.23853580144913Q1209.9684361094314 418.18273424841794 1209.091553924649 416.85412487753484Q1208.2412439272834 415.49894331923406 1205.5574529980995 415.49894331923406L1205.5574529980995 415.49894331923406Q1198.8612617688486 415.49894331923406 1194.8488614687817 418.5813170596829Q1190.8364611687148 421.637118612714 1189.6938571097553 426.2341070359696L1189.6938571097553 426.2341070359696L1189.6938571097553 426.4201123478932ZM1332.9710916657896 446.50868603564584Q1332.014492918754 459.9010684941476 1330.8718888597946 467.26156440884Q1329.729284800835 474.6220603235324 1327.2314991835747 477.49185656463993L1327.2314991835747 477.49185656463993Q1323.0330935715842 483.41745435877857 1315.964891718486 485.4369406025209Q1308.87011767797 487.45642684626324 1298.7461142718407 487.45642684626324L1298.7461142718407 487.45642684626324Q1285.91174774911 487.45642684626324 1277.7806583993056 485.7292346641152Q1269.6495690495008 484.0020424819672 1263.5379659434384 477.67786187656355L1263.5379659434384 477.67786187656355L1261.8107737612904 475.9772418818332Q1249.7470006736717 466.9692703472457 1249.7470006736717 439.62648949447134L1249.7470006736717 439.62648949447134L1249.7470006736717 433.674319512915Q1249.7470006736717 422.40771204782624 1249.1889847379007 417.6247183126471L1249.1889847379007 417.6247183126471Q1249.1889847379007 410.157933648284 1249.8532894233422 405.18893460118113Q1250.5175941087841 400.19336336666066 1253.015379726044 393.4971721374098L1253.015379726044 393.4971721374098L1252.8293744141206 393.7097496367511Q1254.529994408851 386.6149755962353 1263.4316771937679 382.97458592001556Q1272.3333599786847 379.3607684312135 1284.184555566962 379.3607684312135L1284.184555566962 379.3607684312135Q1285.7257424371865 379.5467737431372 1291.2793296074778 379.5467737431372L1291.2793296074778 379.5467737431372L1295.8763180307333 379.3607684312135Q1304.485706754056 379.3607684312135 1312.3245020422664 382.310281234574Q1320.1632973304763 385.2863662253522 1324.3617029424672 391.21196401949084L1324.3617029424672 391.21196401949084L1325.1322963775792 391.7965521426794Q1330.3138729240236 395.62294713082275 1331.82848760683 404.49805772832195Q1333.3696744770546 413.3997405132388 1333.3696744770546 429.28990858900073L1333.3696744770546 429.28990858900073Q1327.2314991835747 430.2465073360366 1324.3617029424672 430.2465073360366L1324.3617029424672 430.2465073360366Q1319.5787092072878 430.2465073360366 1313.360817351555 429.47591390092435Q1307.142925495822 428.7053204658122 1305.4423055010916 428.51931515388856L1305.4423055010916 428.51931515388856Q1305.2297280017506 428.14730453004125 1305.0437226898266 427.0844170333348Q1304.857717377903 426.0215295366283 1304.087123942791 425.54323016311037Q1303.3165305076786 425.0649307895925 1301.6159105129482 424.6929201657452L1301.6159105129482 424.6929201657452Q1301.0313223897597 420.2819370544133 1299.3041302076117 418.18273424841794Q1297.5769380254637 416.0835314424226 1293.3785324134733 416.0835314424226L1293.3785324134733 416.0835314424226Q1292.6079389783608 416.0835314424226 1289.924148049177 416.4555420662699L1289.924148049177 416.4555420662699L1290.1367255485184 416.4555420662699Q1285.5397371252625 417.8107236245707 1283.9985502550385 421.4511133007904Q1282.4839355722315 425.0649307895925 1282.4839355722315 430.80452327180745L1282.4839355722315 430.80452327180745L1282.4839355722315 436.7566932533638Q1282.4839355722315 438.8558960593591 1282.0853527609665 443.4528844826147L1282.0853527609665 443.4528844826147L1281.899347449043 448.7938941535648Q1281.899347449043 451.1056744589014 1283.9985502550385 451.7699791443429Q1286.0977530610335 452.43428382978453 1289.5521374253299 452.43428382978453L1289.5521374253299 452.43428382978453Q1294.9197192836973 452.43428382978453 1297.3909327135402 450.70709164763645L1297.3909327135402 450.70709164763645L1297.2049274016163 450.70709164763645Q1298.3475314605757 450.1490757118656 1299.2244136453587 447.9435841561996Q1300.0747236427237 445.73809260053366 1300.6593117659127 443.346595732944Q1301.2173277016832 440.95509886535444 1301.4033330136072 439.9985001183186L1301.4033330136072 439.9985001183186Q1306.0003214368626 440.3705107421659 1308.87011767797 440.3705107421659L1308.87011767797 440.3705107421659L1314.795715472109 440.18450543024227Q1316.7089129661804 439.9985001183186 1320.5353079543238 439.9985001183186L1320.5353079543238 439.9985001183186Q1325.1322963775792 439.9985001183186 1327.6300819948397 440.58308824150714L1327.6300819948397 440.58308824150714L1329.1446966776466 442.6822910475025L1328.9586913657226 444.0109004183856L1331.456476982983 444.4094832296505L1332.9710916657896 446.50868603564584ZM1319.9772920185528 441.9116976123903L1312.1384967303425 442.0977029243139Q1309.826716425006 442.28370823623754 1305.814316124939 442.28370823623754L1305.814316124939 442.28370823623754Q1303.52910800702 442.28370823623754 1302.9445198838316 442.0977029243139L1302.9445198838316 442.0977029243139Q1301.6159105129482 448.60788884164117 1299.0118361460172 451.5839738324193Q1296.4343339665043 454.5334866357798 1289.5521374253299 454.5334866357798L1289.5521374253299 454.5334866357798Q1283.9985502550385 454.5334866357798 1280.172155266895 452.06227320593723Q1276.3457602787516 449.56448758867697 1276.3457602787516 444.5954885415742L1276.3457602787516 444.5954885415742L1276.3457602787516 437.71329200039963Q1276.3457602787516 427.5627164068527 1277.116353713864 422.0091292365613Q1277.886947148976 416.4555420662699 1280.8364599523366 413.3200239509858Q1283.8125449431145 410.157933648284 1290.1367255485184 410.157933648284L1290.1367255485184 410.157933648284Q1295.4777352194683 410.157933648284 1298.9321195837647 413.5857458251624Q1302.3599317606431 417.04013018945847 1303.3165305076786 422.96572798359716L1303.3165305076786 422.96572798359716Q1313.281100789302 424.6929201657452 1320.5353079543238 424.6929201657452L1320.5353079543238 424.6929201657452Q1325.1322963775792 424.6929201657452 1327.6300819948397 423.92232673063296L1327.6300819948397 423.92232673063296Q1327.6300819948397 422.0091292365613 1327.3377879332452 412.36342520394993Q1327.0454938716512 402.6911489839209 1325.2385851272502 397.32356712555315Q1323.4051041954312 391.98255745460307 1320.1632973304763 389.4847718373428L1320.1632973304763 389.4847718373428Q1315.7523142191449 385.2863662253522 1309.1624117395645 383.26687998160986Q1302.5725092599841 381.2739659252852 1295.1057245956213 381.2739659252852L1295.1057245956213 381.2739659252852L1287.8249452431814 381.45997123720883Q1285.353731813339 381.45997123720883 1283.9985502550385 381.2739659252852L1283.9985502550385 381.2739659252852Q1271.1907559197252 381.2739659252852 1264.0959818792094 384.80806685183427Q1257.027780026111 388.3421677783833 1254.051695035333 396.1012465043407Q1251.1021822319726 403.83375304288035 1251.1021822319726 417.41214081330577L1251.1021822319726 417.41214081330577Q1251.6601981677436 422.59371735974986 1251.6601981677436 428.3333098419649L1251.6601981677436 428.3333098419649L1251.4741928558196 439.2279066832064Q1251.4741928558196 456.26067881792784 1256.9214912764405 467.3678531585106Q1262.395361884479 478.4484553116758 1277.4883643377111 480.946240928936L1277.4883643377111 480.946240928936L1286.4963358722985 481.1322462408596Q1293.0065217896258 481.5042568647069 1296.6203392784278 481.5042568647069L1296.6203392784278 481.5042568647069Q1305.6283108130156 481.5042568647069 1311.9259192310014 479.59105937063526Q1318.2500998364048 477.67786187656355 1321.8904895126248 472.5228575175371L1321.8904895126248 472.5228575175371Q1324.1756976305437 470.2376493996182 1325.2385851272502 462.9568700471787Q1326.2749004365387 455.6760906947393 1327.2314991835747 442.49628573557885L1327.2314991835747 442.49628573557885Q1324.5742804418082 441.9116976123903 1319.9772920185528 441.9116976123903L1319.9772920185528 441.9116976123903ZM1388.852401805133 426.97812828366415Q1393.449390228389 434.2589076361036 1395.5485930343843 437.8992973123233L1395.5485930343843 437.8992973123233Q1404.5299923815542 452.06227320593723 1410.8541729869576 462.6645759855844Q1417.1517814049434 473.2934509526493 1422.8913738871584 484.95864122900304L1422.8913738871584 484.95864122900304Q1419.064978899015 484.95864122900304 1410.269584863769 485.3306518528503L1410.269584863769 485.3306518528503Q1400.7035973934107 485.7292346641152 1395.5485930343843 485.7292346641152L1395.5485930343843 485.7292346641152Q1391.7221980462405 485.7292346641152 1389.516706490575 484.85235247933235Q1387.311214934909 484.0020424819672 1385.982605564026 481.3182515527833L1385.982605564026 481.3182515527833L1384.2554133818776 480.946240928936Q1378.5158208996627 472.15084689368985 1373.5468218525598 461.043672553107L1373.5468218525598 461.043672553107Q1371.6336243584883 456.84526694111645 1370.4910202995288 454.71949194770343L1370.4910202995288 454.71949194770343L1370.6770256114523 466.0126716002099Q1370.6770256114523 477.49185656463993 1369.1358387412279 485.14464654092666L1369.1358387412279 485.14464654092666Q1366.2660425001204 484.95864122900304 1360.5264500179055 484.95864122900304L1360.5264500179055 484.95864122900304L1357.470648464874 484.95864122900304Q1351.3590453588117 485.3306518528503 1347.9046609945158 485.3306518528503L1347.9046609945158 485.3306518528503Q1347.1340675594038 485.3306518528503 1344.9285760037378 485.4369406025209Q1342.7496566354894 485.54322935219153 1341.5007638268594 484.58663060515573Q1340.2518710182294 483.63003185811993 1340.2518710182294 481.3182515527833L1340.2518710182294 481.3182515527833Q1339.2952722711934 481.3182515527833 1336.6114813420095 480.946240928936L1336.6114813420095 480.946240928936Q1335.840887906897 460.85766724118344 1335.840887906897 434.8434957592921L1335.840887906897 434.8434957592921Q1335.840887906897 419.3253383073774 1336.239470718162 387.5715743432711L1336.239470718162 387.5715743432711Q1336.6114813420095 355.4457997553175 1336.6114813420095 338.4130276205961L1336.6114813420095 338.4130276205961Q1342.537079136148 338.4130276205961 1345.8054581885208 338.2270223086725L1345.8054581885208 338.2270223086725L1356.3280444059146 338.01444480933117Q1358.2412418999866 338.01444480933117 1362.439647511977 338.4130276205961L1362.439647511977 338.4130276205961L1366.452047812044 338.5990329325197L1366.452047812044 342.23942260873946L1370.2784428001873 342.4254279206631L1370.2784428001873 386.0569596604644Q1370.2784428001873 389.88335464860774 1370.0924374882638 391.7965521426794L1370.0924374882638 391.7965521426794L1369.9064321763403 397.7221499368181L1373.3608165406363 391.98255745460307Q1378.5158208996627 383.3731687312805 1383.298814634842 377.63357624906547L1383.298814634842 377.63357624906547Q1387.311214934909 378.96218561994857 1393.8214008522364 378.96218561994857L1393.8214008522364 378.96218561994857L1402.0587789517112 378.77618030802495Q1407.7983714339261 378.4041696841777 1410.8541729869576 378.4041696841777L1410.8541729869576 378.4041696841777Q1415.052578598948 378.4041696841777 1417.5503642162084 378.5901749961013L1417.5503642162084 378.5901749961013Q1416.96577609302 379.5467737431372 1416.301471407578 380.39708374050235Q1415.6371667221365 381.2739659252852 1415.052578598948 382.230564672321L1415.052578598948 382.230564672321Q1418.8789735870914 382.230564672321 1421.3767592043519 382.4165699842447L1421.3767592043519 382.4165699842447Q1414.8665732870245 392.54057339037394 1409.312986116733 400.11364680440767Q1403.7593989464417 407.66014803102377 1395.1500102231194 418.76732237160655L1395.1500102231194 418.76732237160655L1388.852401805133 426.97812828366415ZM1394.9640049111958 479.98964218190014Q1399.3749880225273 479.98964218190014 1407.3997886226616 479.59105937063526L1407.3997886226616 479.59105937063526Q1413.9099745399885 479.21904874678796 1416.009177345984 479.21904874678796L1416.009177345984 479.21904874678796Q1411.040178298881 469.28105065258234 1405.6725964405132 460.2730791179948Q1400.3315867695633 451.29167977082506 1390.9516046111285 436.3581104420989L1390.9516046111285 436.3581104420989L1382.7142265116531 423.1517332955208L1393.6353955403124 408.8027520899832Q1408.542392681621 389.11276121349556 1414.281985163836 380.31736717824936L1414.281985163836 380.31736717824936L1411.6247664220696 380.31736717824936L1403.3873883225947 380.503372490173Q1396.8772024052673 380.8753831140203 1393.6353955403124 380.8753831140203L1393.6353955403124 380.8753831140203Q1386.753198999138 380.8753831140203 1384.069408069954 379.7327790550608L1384.069408069954 379.7327790550608Q1379.6584249586222 384.88778341408727 1375.8320299704787 391.98255745460307L1375.8320299704787 391.98255745460307Q1369.9064321763403 402.3191383600736 1364.5388503179724 407.10213209525284L1364.5388503179724 407.10213209525284Q1364.166839694125 402.87715429584455 1364.166839694125 399.8213527428134L1364.166839694125 399.8213527428134Q1364.166839694125 394.267765572522 1364.352845006049 391.21196401949084L1364.352845006049 391.21196401949084L1364.5388503179724 382.230564672321L1364.5388503179724 340.3262251146678Q1361.111038141094 339.9276423034028 1358.7992578357575 339.9276423034028L1358.7992578357575 339.9276423034028L1351.9170612945827 340.1402198027441L1338.524678836081 340.3262251146678Q1338.524678836081 356.1898210030121 1338.152668212234 387.5715743432711L1338.152668212234 387.5715743432711Q1337.754085400969 418.9533276835302 1337.754085400969 435.0295010712158L1337.754085400969 435.0295010712158Q1337.754085400969 459.13047505903535 1338.524678836081 479.21904874678796L1338.524678836081 479.21904874678796Q1342.7496566354894 479.59105937063526 1344.8488594414848 479.59105937063526L1344.8488594414848 479.59105937063526Q1347.9046609945158 479.59105937063526 1353.2722428528837 479.21904874678796L1353.2722428528837 479.21904874678796L1360.340444705982 479.03304343486434L1363.794829070278 479.21904874678796Q1364.9374331292374 473.10744564072564 1364.9374331292374 462.37228192399016L1364.9374331292374 462.37228192399016L1364.7514278173135 450.5210863357128Q1364.5388503179724 447.4652847826817 1364.5388503179724 442.28370823623754L1364.5388503179724 442.28370823623754Q1367.9932346822684 446.69469134756946 1370.7567421737053 451.5839738324193Q1373.5468218525598 456.44668412985146 1376.7886287175147 463.5414581703673L1376.7886287175147 463.5414581703673Q1382.342215887806 474.8080656354561 1385.2120121289136 479.21904874678796L1385.2120121289136 479.21904874678796Q1388.4538189938685 479.98964218190014 1394.9640049111958 479.98964218190014L1394.9640049111958 479.98964218190014ZM1445.1057225683244 440.58308824150714Q1445.1057225683244 445.55208728861 1445.7700272537659 448.7141775913118Q1446.4343319392074 451.8496957065959 1448.5335347452028 455.49008538281566L1448.5335347452028 455.49008538281566L1448.5335347452028 455.8886681940806Q1451.0313203624628 457.2172775649637 1454.6717100386827 457.2172775649637L1454.6717100386827 457.2172775649637Q1458.6841103387496 457.2172775649637 1461.3679012679336 453.497171326491Q1464.0251200096995 449.7504929006006 1464.0251200096995 442.28370823623754L1464.0251200096995 442.28370823623754L1464.0251200096995 440.3705107421659Q1468.250097809108 440.7690935534308 1470.3493006151034 440.7690935534308L1470.3493006151034 440.7690935534308L1477.0454918443538 440.58308824150714Q1479.1446946503493 440.3705107421659 1483.5556777616812 440.3705107421659L1483.5556777616812 440.3705107421659Q1486.797484626636 440.3705107421659 1492.1650664850035 441.3271094892017L1492.1650664850035 441.3271094892017L1491.97906117308 444.5954885415742L1495.991461473147 445.15350447734505Q1495.991461473147 465.8266662882862 1491.500761799562 474.8080656354561Q1486.9834899385596 483.81603717004356 1480.0215768351322 485.62294591444453Q1473.033091544287 487.45642684626324 1458.6841103387496 487.45642684626324L1458.6841103387496 487.45642684626324Q1447.2049253743194 487.45642684626324 1440.402445395398 485.80895122636815Q1433.6265376038941 484.1880477938908 1428.8435438687147 478.4484553116758L1428.8435438687147 478.4484553116758Q1420.021577646051 471.194248146654 1415.8231720340605 457.58928818881094Q1411.6247664220696 444.0109004183856 1411.6247664220696 428.14730453004125L1411.6247664220696 428.14730453004125Q1411.6247664220696 409.5733455250954 1416.009177345984 397.7221499368181L1416.009177345984 397.7221499368181Q1420.021577646051 388.52817309030695 1429.9861479276742 383.6654627928748Q1439.92414602188 378.77618030802495 1452.1739244214223 378.77618030802495L1452.1739244214223 378.77618030802495Q1466.894916250807 378.77618030802495 1476.9392030946833 385.1003609134285Q1486.9834899385596 391.39796933141446 1491.8727724234095 402.0268442984794Q1496.7620549082594 412.62914707812655 1496.7620549082594 425.27750828893375L1496.7620549082594 425.27750828893375Q1496.7620549082594 426.4201123478932 1496.177466785071 435.0295010712158L1496.177466785071 435.0295010712158Q1492.537077108851 435.9860998182516 1476.9392030946833 436.7566932533638Q1461.3679012679336 437.5007145010583 1449.3041281803148 437.5007145010583L1449.3041281803148 437.5007145010583Q1446.4343319392074 437.5007145010583 1445.1057225683244 437.3147091891347L1445.1057225683244 437.3147091891347L1445.1057225683244 440.58308824150714ZM1439.366130086109 431.20310608307244Q1441.651338204028 431.7611220188433 1452.5459350452697 431.7611220188433L1452.5459350452697 431.7611220188433Q1463.0685212626636 431.7611220188433 1475.3182996622063 431.09681733340176Q1487.568078061748 430.4325126479602 1490.6238796147795 429.66191921284803L1490.6238796147795 429.66191921284803Q1491.022462426044 423.92232673063296 1491.022462426044 421.4511133007904L1491.022462426044 421.4511133007904Q1491.022462426044 402.3191383600736 1482.4927902649747 391.50425808108514Q1473.9896902913229 380.68937780209666 1452.1739244214223 380.68937780209666L1452.1739244214223 380.68937780209666Q1440.694739456992 380.68937780209666 1431.0224632369632 385.3660827876052Q1421.3767592043519 390.06935996053136 1417.736369528132 398.28016587258895L1417.736369528132 398.28016587258895Q1413.3253864168 410.157933648284 1413.3253864168 430.06050202411296L1413.3253864168 430.06050202411296Q1413.3253864168 449.93649821252427 1420.021577646051 464.4980569174031Q1426.7177688753018 479.03304343486434 1440.880744768916 481.1322462408596L1440.880744768916 481.1322462408596L1449.3041281803148 481.3182515527833Q1455.8143140976422 481.7168343640482 1459.4547037738616 481.7168343640482L1459.4547037738616 481.7168343640482Q1468.4361031210315 481.7168343640482 1474.8400002886883 479.8036368699765Q1481.2438974563447 477.89043937590486 1484.8842871325642 472.70886282946077L1484.8842871325642 472.70886282946077Q1487.3820727498246 470.60966002346544 1488.3386714968606 463.80718004454394Q1489.295270243896 457.0312722530401 1490.251868990932 442.8682963594261L1490.251868990932 442.8682963594261Q1487.3820727498246 442.28370823623754 1482.7850843265692 442.28370823623754L1482.7850843265692 442.28370823623754L1475.3182996622063 442.49628573557885Q1473.033091544287 442.6822910475025 1469.02069124422 442.6822910475025L1469.02069124422 442.6822910475025Q1466.7089109388835 442.6822910475025 1466.1508950031125 442.49628573557885L1466.1508950031125 442.49628573557885L1466.1508950031125 444.0109004183856Q1466.1508950031125 451.4776850827487 1462.802799388487 455.304080070892Q1459.4547037738616 459.13047505903535 1454.6717100386827 459.13047505903535L1454.6717100386827 459.13047505903535Q1439.92414602188 459.13047505903535 1439.366130086109 434.6309182599509L1439.366130086109 434.6309182599509L1439.366130086109 431.20310608307244ZM1469.977289991256 413.98432863642734L1469.977289991256 416.0835314424226Q1469.977289991256 416.6681195656112 1468.6221084329554 416.6681195656112L1468.6221084329554 416.6681195656112Q1467.6655096859195 416.6681195656112 1464.7957134448116 416.4555420662699Q1461.925917203704 416.2695367543463 1457.9135169036372 416.2695367543463L1457.9135169036372 416.2695367543463L1445.4777331921714 416.4555420662699Q1441.8373435159515 416.4555420662699 1440.694739456992 416.0835314424226Q1439.5521353980325 415.71152081857537 1439.5521353980325 414.3563392602746L1439.5521353980325 414.3563392602746Q1439.5521353980325 399.63534743088974 1455.8143140976422 399.63534743088974L1455.8143140976422 399.63534743088974Q1459.4547037738616 399.63534743088974 1462.510505326893 401.54854492496145L1462.510505326893 401.54854492496145Q1465.938317503771 403.2757371071095 1467.957803747514 406.7035492839879Q1469.977289991256 410.157933648284 1469.977289991256 413.98432863642734L1469.977289991256 413.98432863642734ZM1465.380301568 406.88955459591153Q1462.88251595074 405.3749399131048 1459.6407090857851 405.3749399131048L1459.6407090857851 405.3749399131048Q1452.9445178565343 405.3749399131048 1449.9684328657563 407.66014803102377Q1447.0189200623959 409.97192833636035 1445.8497438160184 414.54234457219826L1445.8497438160184 414.54234457219826L1449.4901334922383 414.3563392602746L1457.9135169036372 414.3563392602746L1466.1508950031125 414.54234457219826L1468.064092497184 414.7549220715395L1468.064092497184 413.98432863642734Q1468.064092497184 409.5733455250954 1465.566306879924 407.10213209525284L1465.566306879924 407.10213209525284L1465.380301568 406.88955459591153ZM1529.2864123074778 385.4723715372758Q1531.7576257373207 385.84438216112306 1532.3422138605092 386.242964972388L1532.3422138605092 386.242964972388Q1543.2368107017505 382.78858060809193 1553.2013809833738 382.78858060809193L1553.2013809833738 382.78858060809193Q1557.9843747185532 382.78858060809193 1561.4121868954312 383.26687998160986Q1564.8665712597276 383.7451793551278 1564.8665712597276 384.1437621663927L1564.8665712597276 384.1437621663927L1564.8665712597276 387.0135584075002Q1568.692966247871 387.5715743432711 1568.692966247871 387.970157154536L1568.692966247871 387.970157154536L1568.506960935947 404.23233585414533Q1568.294383436606 407.4741427191001 1568.294383436606 412.62914707812655L1568.294383436606 412.62914707812655Q1568.294383436606 415.71152081857537 1568.8789715597945 424.32090954189795L1568.8789715597945 424.32090954189795L1564.4679884484626 422.7797226716735L1564.680565947804 422.96572798359716L1562.3687856424672 422.19513454848493L1562.5547909543907 422.40771204782624Q1554.9020009781043 420.4945145537546 1552.3244987985913 420.09593174248965Q1549.746996619078 419.72392111864235 1547.833799125006 419.72392111864235Q1545.9206016309345 419.72392111864235 1545.150008195822 419.72392111864235L1545.150008195822 419.72392111864235Q1538.639822278495 419.72392111864235 1535.5043041632107 422.3014232981556Q1532.3422138605092 424.8789254776688 1532.3422138605092 431.5751167069197L1532.3422138605092 431.5751167069197Q1533.1128072956212 455.11807475896836 1533.1128072956212 481.7168343640482L1533.1128072956212 481.7168343640482L1533.1128072956212 484.0020424819672Q1526.9746320021413 485.7292346641152 1521.819627643115 485.7292346641152L1521.819627643115 485.7292346641152Q1518.7638260900835 485.7292346641152 1517.222639219859 485.54322935219153L1517.222639219859 485.54322935219153L1511.4830467376441 485.3306518528503L1509.1978386197252 485.3306518528503Q1506.3280423786177 485.3306518528503 1503.6442514494338 485.7292346641152L1503.6442514494338 485.7292346641152L1503.6442514494338 481.5042568647069L1499.8178564612904 481.90283967597185L1499.6318511493669 445.73809260053366Q1499.2332683381019 421.637118612714 1499.2332683381019 409.2013349012481L1499.2332683381019 409.2013349012481Q1499.2332683381019 399.0507593077012 1499.6318511493669 381.8319818610561L1499.6318511493669 381.8319818610561Q1504.2022673852048 382.4165699842447 1508.2412398726892 382.4165699842447L1508.2412398726892 382.4165699842447Q1509.7558545554962 382.4165699842447 1513.2899554820451 381.93827061072676Q1516.850628596012 381.45997123720883 1522.9622317020744 381.45997123720883L1522.9622317020744 381.45997123720883Q1529.2864123074778 381.45997123720883 1529.2864123074778 383.7451793551278L1529.2864123074778 383.7451793551278L1529.2864123074778 385.4723715372758ZM1527.3732148134063 387.3855690313475L1527.3732148134063 383.7451793551278Q1527.3732148134063 383.3731687312805 1525.0614345080694 383.3731687312805L1525.0614345080694 383.3731687312805Q1518.7638260900835 383.3731687312805 1514.3528429787516 383.8514681047984Q1509.9418598674197 384.32976747831634 1508.2412398726892 384.32976747831634L1508.2412398726892 384.32976747831634L1505.9294595673528 384.32976747831634Q1503.4582461375103 384.32976747831634 1501.5450486434388 383.9311846670514L1501.5450486434388 383.9311846670514Q1501.1464658321734 389.88335464860774 1501.1464658321734 401.36253961303777L1501.1464658321734 401.36253961303777L1501.1464658321734 413.0277298893915Q1501.1464658321734 424.6929201657452 1501.5450486434388 446.88069665949314L1501.5450486434388 446.88069665949314L1501.7310539553623 479.8036368699765Q1504.0162620732813 479.59105937063526 1508.0286623733482 479.59105937063526L1508.0286623733482 479.59105937063526L1518.3652432788185 479.8036368699765Q1522.9622317020744 479.8036368699765 1527.3732148134063 478.6344606235994L1527.3732148134063 478.6344606235994L1527.3732148134063 477.89043937590486Q1527.3732148134063 467.7398637823579 1526.9746320021413 451.6636903946723L1526.9746320021413 451.6636903946723Q1526.6026213782943 435.5875170069867 1526.6026213782943 426.60611765981685L1526.6026213782943 426.60611765981685Q1526.6026213782943 419.53791580671873 1530.3227276167668 416.7478361278642Q1534.0694060426572 413.98432863642734 1541.323613207679 413.98432863642734L1541.323613207679 413.98432863642734Q1542.4662172666385 413.98432863642734 1544.6717088223045 413.87803988675665Q1546.8772003779704 413.7983233245037 1549.8532853687484 414.27662269802164Q1552.8027981721089 414.7549220715395 1557.2137812834408 415.897526130499L1557.2137812834408 415.897526130499Q1558.1703800304767 416.2695367543463 1559.2066953397652 416.5618308159406Q1560.2695828364717 416.85412487753484 1561.2261815835077 417.2261355013821L1561.2261815835077 417.2261355013821L1562.9533737656557 417.8107236245707Q1562.7673684537322 415.71152081857537 1562.7673684537322 411.6725483310907L1562.7673684537322 411.6725483310907L1562.7673684537322 404.6043464779926L1562.9533737656557 384.1437621663927Q1562.9533737656557 383.7451793551278 1558.9409734655887 383.7451793551278L1558.9409734655887 383.7451793551278Q1551.6601941131494 383.7451793551278 1541.8019125811966 385.76466559887007Q1531.9436310492442 387.7575796551948 1527.5592201253298 390.25536527245504L1527.5592201253298 390.25536527245504Q1527.5592201253298 388.9267559015719 1527.4529313756593 388.3421677783833Q1527.3732148134063 387.7575796551948 1527.3732148134063 387.3855690313475L1527.3732148134063 387.3855690313475Z " fill="black" transform="matrix(0.5577230665328035,0,0,0.5577230665328035,0,69.65230434369681)"/></g></svg>